<mxfile host="app.diagrams.net" modified="2024-06-01T12:28:45.718Z" agent="Mozilla/5.0 (Windows NT 10.0; Win64; x64) AppleWebKit/537.36 (KHTML, like Gecko) Chrome/125.0.0.0 Safari/537.36" etag="vtBsa_6kWUApfj7RSBBu" version="24.4.13" type="github">
  <diagram name="Page-1" id="dDvQA7PWo-lutNARHK1I">
    <mxGraphModel dx="1105" dy="549" grid="1" gridSize="10" guides="1" tooltips="1" connect="1" arrows="1" fold="1" page="1" pageScale="1" pageWidth="827" pageHeight="1169" math="0" shadow="0">
      <root>
        <mxCell id="0" />
        <mxCell id="1" parent="0" />
        <mxCell id="UBIaSU7ZRvxlw-NI7v71-1" value="" style="shape=actor;whiteSpace=wrap;html=1;" vertex="1" parent="1">
          <mxGeometry x="30" y="270" width="40" height="60" as="geometry" />
        </mxCell>
        <mxCell id="UBIaSU7ZRvxlw-NI7v71-2" value="Overlay inscription" style="rounded=0;whiteSpace=wrap;html=1;" vertex="1" parent="1">
          <mxGeometry x="130" y="270" width="120" height="60" as="geometry" />
        </mxCell>
        <mxCell id="UBIaSU7ZRvxlw-NI7v71-4" value="" style="endArrow=classic;html=1;rounded=0;" edge="1" parent="1">
          <mxGeometry width="50" height="50" relative="1" as="geometry">
            <mxPoint x="250" y="300" as="sourcePoint" />
            <mxPoint x="400" y="300" as="targetPoint" />
          </mxGeometry>
        </mxCell>
        <mxCell id="UBIaSU7ZRvxlw-NI7v71-7" value="saisie information" style="text;html=1;align=center;verticalAlign=middle;whiteSpace=wrap;rounded=0;" vertex="1" parent="1">
          <mxGeometry x="290" y="260" width="60" height="30" as="geometry" />
        </mxCell>
        <mxCell id="UBIaSU7ZRvxlw-NI7v71-8" value="vérif champs non vide" style="rounded=0;whiteSpace=wrap;html=1;" vertex="1" parent="1">
          <mxGeometry x="400" y="270" width="120" height="60" as="geometry" />
        </mxCell>
        <mxCell id="UBIaSU7ZRvxlw-NI7v71-10" value="" style="endArrow=none;html=1;rounded=0;" edge="1" parent="1">
          <mxGeometry width="50" height="50" relative="1" as="geometry">
            <mxPoint x="460" y="390" as="sourcePoint" />
            <mxPoint x="460" y="330" as="targetPoint" />
          </mxGeometry>
        </mxCell>
        <mxCell id="UBIaSU7ZRvxlw-NI7v71-12" value="NOK" style="text;html=1;align=center;verticalAlign=middle;whiteSpace=wrap;rounded=0;fontColor=#FF0000;" vertex="1" parent="1">
          <mxGeometry x="413" y="330" width="60" height="30" as="geometry" />
        </mxCell>
        <mxCell id="UBIaSU7ZRvxlw-NI7v71-13" value="" style="endArrow=none;html=1;rounded=0;" edge="1" parent="1">
          <mxGeometry width="50" height="50" relative="1" as="geometry">
            <mxPoint x="180" y="390" as="sourcePoint" />
            <mxPoint x="460" y="390" as="targetPoint" />
          </mxGeometry>
        </mxCell>
        <mxCell id="UBIaSU7ZRvxlw-NI7v71-14" value="" style="endArrow=classic;html=1;rounded=0;" edge="1" parent="1">
          <mxGeometry width="50" height="50" relative="1" as="geometry">
            <mxPoint x="180" y="390" as="sourcePoint" />
            <mxPoint x="180" y="330" as="targetPoint" />
          </mxGeometry>
        </mxCell>
        <mxCell id="UBIaSU7ZRvxlw-NI7v71-15" value="envoie message erreur" style="text;html=1;align=center;verticalAlign=middle;whiteSpace=wrap;rounded=0;fontColor=#FF0000;" vertex="1" parent="1">
          <mxGeometry x="230" y="360" width="140" height="30" as="geometry" />
        </mxCell>
        <mxCell id="UBIaSU7ZRvxlw-NI7v71-16" value="" style="endArrow=classic;html=1;rounded=0;entryX=0;entryY=0.5;entryDx=0;entryDy=0;" edge="1" parent="1" target="UBIaSU7ZRvxlw-NI7v71-17">
          <mxGeometry width="50" height="50" relative="1" as="geometry">
            <mxPoint x="520" y="300" as="sourcePoint" />
            <mxPoint x="590" y="300" as="targetPoint" />
          </mxGeometry>
        </mxCell>
        <mxCell id="UBIaSU7ZRvxlw-NI7v71-17" value="Backend (vérif mail et username non utilisé" style="rounded=0;whiteSpace=wrap;html=1;" vertex="1" parent="1">
          <mxGeometry x="640" y="270" width="120" height="60" as="geometry" />
        </mxCell>
        <mxCell id="UBIaSU7ZRvxlw-NI7v71-18" value="OK" style="text;html=1;align=center;verticalAlign=middle;whiteSpace=wrap;rounded=0;fontColor=#009900;" vertex="1" parent="1">
          <mxGeometry x="500" y="270" width="60" height="30" as="geometry" />
        </mxCell>
        <mxCell id="UBIaSU7ZRvxlw-NI7v71-19" value="" style="endArrow=none;html=1;rounded=0;" edge="1" parent="1">
          <mxGeometry width="50" height="50" relative="1" as="geometry">
            <mxPoint x="699.67" y="410" as="sourcePoint" />
            <mxPoint x="699.67" y="330" as="targetPoint" />
          </mxGeometry>
        </mxCell>
        <mxCell id="UBIaSU7ZRvxlw-NI7v71-21" value="" style="endArrow=none;html=1;rounded=0;" edge="1" parent="1">
          <mxGeometry width="50" height="50" relative="1" as="geometry">
            <mxPoint x="160" y="410" as="sourcePoint" />
            <mxPoint x="700" y="410" as="targetPoint" />
          </mxGeometry>
        </mxCell>
        <mxCell id="UBIaSU7ZRvxlw-NI7v71-22" value="" style="endArrow=classic;html=1;rounded=0;entryX=0.25;entryY=1;entryDx=0;entryDy=0;" edge="1" parent="1" target="UBIaSU7ZRvxlw-NI7v71-2">
          <mxGeometry width="50" height="50" relative="1" as="geometry">
            <mxPoint x="160" y="410" as="sourcePoint" />
            <mxPoint x="520" y="370" as="targetPoint" />
          </mxGeometry>
        </mxCell>
        <mxCell id="UBIaSU7ZRvxlw-NI7v71-23" value="BDD" style="rounded=0;whiteSpace=wrap;html=1;" vertex="1" parent="1">
          <mxGeometry x="640" y="110" width="120" height="60" as="geometry" />
        </mxCell>
        <mxCell id="UBIaSU7ZRvxlw-NI7v71-24" value="envoie message erreur" style="text;html=1;align=center;verticalAlign=middle;whiteSpace=wrap;rounded=0;fontColor=#FF0000;" vertex="1" parent="1">
          <mxGeometry x="460" y="380" width="140" height="30" as="geometry" />
        </mxCell>
        <mxCell id="UBIaSU7ZRvxlw-NI7v71-25" value="NOK" style="text;html=1;align=center;verticalAlign=middle;whiteSpace=wrap;rounded=0;fontColor=#FF0000;" vertex="1" parent="1">
          <mxGeometry x="640" y="330" width="60" height="30" as="geometry" />
        </mxCell>
        <mxCell id="UBIaSU7ZRvxlw-NI7v71-26" value="" style="endArrow=classic;html=1;rounded=0;entryX=0.5;entryY=1;entryDx=0;entryDy=0;" edge="1" parent="1">
          <mxGeometry width="50" height="50" relative="1" as="geometry">
            <mxPoint x="699.67" y="270" as="sourcePoint" />
            <mxPoint x="699.67" y="170" as="targetPoint" />
          </mxGeometry>
        </mxCell>
        <mxCell id="UBIaSU7ZRvxlw-NI7v71-27" value="OK" style="text;html=1;align=center;verticalAlign=middle;whiteSpace=wrap;rounded=0;fontColor=#009900;" vertex="1" parent="1">
          <mxGeometry x="650" y="240" width="60" height="30" as="geometry" />
        </mxCell>
        <mxCell id="UBIaSU7ZRvxlw-NI7v71-29" value="enregistrement BDD + attribution ID&lt;div&gt;user en attente de confirmation mail&lt;/div&gt;" style="text;html=1;align=center;verticalAlign=middle;whiteSpace=wrap;rounded=0;" vertex="1" parent="1">
          <mxGeometry x="730" y="180" width="130" height="60" as="geometry" />
        </mxCell>
        <mxCell id="UBIaSU7ZRvxlw-NI7v71-30" value="envoie Mail" style="rounded=0;whiteSpace=wrap;html=1;" vertex="1" parent="1">
          <mxGeometry x="400" y="190" width="120" height="60" as="geometry" />
        </mxCell>
        <mxCell id="UBIaSU7ZRvxlw-NI7v71-32" value="" style="endArrow=none;html=1;rounded=0;" edge="1" parent="1">
          <mxGeometry width="50" height="50" relative="1" as="geometry">
            <mxPoint x="660" y="270" as="sourcePoint" />
            <mxPoint x="660" y="220" as="targetPoint" />
          </mxGeometry>
        </mxCell>
        <mxCell id="UBIaSU7ZRvxlw-NI7v71-33" value="" style="endArrow=classic;html=1;rounded=0;" edge="1" parent="1">
          <mxGeometry width="50" height="50" relative="1" as="geometry">
            <mxPoint x="660" y="220" as="sourcePoint" />
            <mxPoint x="520" y="220" as="targetPoint" />
          </mxGeometry>
        </mxCell>
        <mxCell id="UBIaSU7ZRvxlw-NI7v71-35" value="" style="endArrow=classic;html=1;rounded=0;entryX=0;entryY=0.5;entryDx=0;entryDy=0;" edge="1" parent="1" source="UBIaSU7ZRvxlw-NI7v71-1" target="UBIaSU7ZRvxlw-NI7v71-2">
          <mxGeometry width="50" height="50" relative="1" as="geometry">
            <mxPoint x="410" y="340" as="sourcePoint" />
            <mxPoint x="460" y="290" as="targetPoint" />
          </mxGeometry>
        </mxCell>
        <mxCell id="UBIaSU7ZRvxlw-NI7v71-36" value="" style="endArrow=none;html=1;rounded=0;entryX=0;entryY=0.5;entryDx=0;entryDy=0;" edge="1" parent="1" target="UBIaSU7ZRvxlw-NI7v71-30">
          <mxGeometry width="50" height="50" relative="1" as="geometry">
            <mxPoint x="50" y="220" as="sourcePoint" />
            <mxPoint x="390" y="220" as="targetPoint" />
          </mxGeometry>
        </mxCell>
        <mxCell id="UBIaSU7ZRvxlw-NI7v71-37" value="" style="endArrow=classic;html=1;rounded=0;entryX=0.5;entryY=0;entryDx=0;entryDy=0;" edge="1" parent="1" target="UBIaSU7ZRvxlw-NI7v71-1">
          <mxGeometry width="50" height="50" relative="1" as="geometry">
            <mxPoint x="50" y="220" as="sourcePoint" />
            <mxPoint x="360" y="290" as="targetPoint" />
          </mxGeometry>
        </mxCell>
        <mxCell id="UBIaSU7ZRvxlw-NI7v71-41" value="ouverture lien" style="rounded=0;whiteSpace=wrap;html=1;" vertex="1" parent="1">
          <mxGeometry x="130" y="450" width="120" height="60" as="geometry" />
        </mxCell>
        <mxCell id="UBIaSU7ZRvxlw-NI7v71-42" value="" style="endArrow=none;html=1;rounded=0;" edge="1" parent="1">
          <mxGeometry width="50" height="50" relative="1" as="geometry">
            <mxPoint x="50" y="480" as="sourcePoint" />
            <mxPoint x="50" y="330" as="targetPoint" />
          </mxGeometry>
        </mxCell>
        <mxCell id="UBIaSU7ZRvxlw-NI7v71-43" value="" style="endArrow=classic;html=1;rounded=0;entryX=0;entryY=0.5;entryDx=0;entryDy=0;" edge="1" parent="1" target="UBIaSU7ZRvxlw-NI7v71-41">
          <mxGeometry width="50" height="50" relative="1" as="geometry">
            <mxPoint x="50" y="480" as="sourcePoint" />
            <mxPoint x="100" y="430" as="targetPoint" />
          </mxGeometry>
        </mxCell>
        <mxCell id="UBIaSU7ZRvxlw-NI7v71-44" value="information utilisateur mail envoyer" style="text;html=1;align=center;verticalAlign=middle;whiteSpace=wrap;rounded=0;" vertex="1" parent="1">
          <mxGeometry x="150" y="190" width="160" height="30" as="geometry" />
        </mxCell>
        <mxCell id="UBIaSU7ZRvxlw-NI7v71-45" value="Backend (passage de l&#39;utilisateur en actif" style="rounded=0;whiteSpace=wrap;html=1;" vertex="1" parent="1">
          <mxGeometry x="630" y="450" width="120" height="60" as="geometry" />
        </mxCell>
        <mxCell id="UBIaSU7ZRvxlw-NI7v71-46" value="" style="endArrow=classic;html=1;rounded=0;exitX=1;exitY=0.5;exitDx=0;exitDy=0;" edge="1" parent="1" source="UBIaSU7ZRvxlw-NI7v71-41" target="UBIaSU7ZRvxlw-NI7v71-50">
          <mxGeometry width="50" height="50" relative="1" as="geometry">
            <mxPoint x="510" y="420" as="sourcePoint" />
            <mxPoint x="400" y="480" as="targetPoint" />
          </mxGeometry>
        </mxCell>
        <mxCell id="UBIaSU7ZRvxlw-NI7v71-47" value="suppression dans BDD" style="rounded=0;whiteSpace=wrap;html=1;" vertex="1" parent="1">
          <mxGeometry x="630" y="540" width="120" height="60" as="geometry" />
        </mxCell>
        <mxCell id="UBIaSU7ZRvxlw-NI7v71-49" value="Dans les 15 minutes" style="text;html=1;align=center;verticalAlign=middle;whiteSpace=wrap;rounded=0;fontColor=#009900;" vertex="1" parent="1">
          <mxGeometry x="250" y="450" width="120" height="30" as="geometry" />
        </mxCell>
        <mxCell id="UBIaSU7ZRvxlw-NI7v71-50" value="message compte activé" style="rounded=0;whiteSpace=wrap;html=1;" vertex="1" parent="1">
          <mxGeometry x="370" y="450" width="120" height="60" as="geometry" />
        </mxCell>
        <mxCell id="UBIaSU7ZRvxlw-NI7v71-51" value="" style="endArrow=classic;html=1;rounded=0;exitX=1;exitY=0.5;exitDx=0;exitDy=0;entryX=0;entryY=0.5;entryDx=0;entryDy=0;" edge="1" parent="1" source="UBIaSU7ZRvxlw-NI7v71-50" target="UBIaSU7ZRvxlw-NI7v71-45">
          <mxGeometry width="50" height="50" relative="1" as="geometry">
            <mxPoint x="630" y="380" as="sourcePoint" />
            <mxPoint x="680" y="330" as="targetPoint" />
          </mxGeometry>
        </mxCell>
        <mxCell id="UBIaSU7ZRvxlw-NI7v71-52" value="" style="endArrow=none;html=1;rounded=0;exitX=0.5;exitY=1;exitDx=0;exitDy=0;" edge="1" parent="1" source="UBIaSU7ZRvxlw-NI7v71-41">
          <mxGeometry width="50" height="50" relative="1" as="geometry">
            <mxPoint x="360" y="530" as="sourcePoint" />
            <mxPoint x="190" y="570" as="targetPoint" />
          </mxGeometry>
        </mxCell>
        <mxCell id="UBIaSU7ZRvxlw-NI7v71-53" value="information activation compte annulé" style="rounded=0;whiteSpace=wrap;html=1;" vertex="1" parent="1">
          <mxGeometry x="370" y="540" width="120" height="60" as="geometry" />
        </mxCell>
        <mxCell id="UBIaSU7ZRvxlw-NI7v71-54" value="" style="endArrow=classic;html=1;rounded=0;entryX=0;entryY=0.5;entryDx=0;entryDy=0;" edge="1" parent="1" target="UBIaSU7ZRvxlw-NI7v71-53">
          <mxGeometry width="50" height="50" relative="1" as="geometry">
            <mxPoint x="190" y="570" as="sourcePoint" />
            <mxPoint x="410" y="480" as="targetPoint" />
          </mxGeometry>
        </mxCell>
        <mxCell id="UBIaSU7ZRvxlw-NI7v71-55" value="Après 15 minutes" style="text;html=1;align=center;verticalAlign=middle;whiteSpace=wrap;rounded=0;fontColor=#FF0000;" vertex="1" parent="1">
          <mxGeometry x="210" y="540" width="120" height="30" as="geometry" />
        </mxCell>
        <mxCell id="UBIaSU7ZRvxlw-NI7v71-56" value="" style="endArrow=classic;html=1;rounded=0;exitX=1;exitY=0.5;exitDx=0;exitDy=0;" edge="1" parent="1" source="UBIaSU7ZRvxlw-NI7v71-53" target="UBIaSU7ZRvxlw-NI7v71-47">
          <mxGeometry width="50" height="50" relative="1" as="geometry">
            <mxPoint x="500" y="530" as="sourcePoint" />
            <mxPoint x="550" y="480" as="targetPoint" />
          </mxGeometry>
        </mxCell>
        <mxCell id="UBIaSU7ZRvxlw-NI7v71-57" value="" style="endArrow=classic;html=1;rounded=0;exitX=0.644;exitY=1.073;exitDx=0;exitDy=0;exitPerimeter=0;entryX=0.637;entryY=-0.008;entryDx=0;entryDy=0;entryPerimeter=0;" edge="1" parent="1" source="UBIaSU7ZRvxlw-NI7v71-23" target="UBIaSU7ZRvxlw-NI7v71-17">
          <mxGeometry width="50" height="50" relative="1" as="geometry">
            <mxPoint x="690" y="240" as="sourcePoint" />
            <mxPoint x="740" y="190" as="targetPoint" />
          </mxGeometry>
        </mxCell>
      </root>
    </mxGraphModel>
  </diagram>
</mxfile>
